<?xml version="1.0" encoding="UTF-8" standalone="no"?>
<!-- Created with Inkscape (http://www.inkscape.org/) -->

<svg
   width="1100mm"
   height="2000mm"
   viewBox="0 0 1100 2000"
   version="1.1"
   id="svg5"
   xml:space="preserve"
   inkscape:version="1.2.1 (9c6d41e410, 2022-07-14)"
   sodipodi:docname="background-lines.svg"
   xmlns:inkscape="http://www.inkscape.org/namespaces/inkscape"
   xmlns:sodipodi="http://sodipodi.sourceforge.net/DTD/sodipodi-0.dtd"
   xmlns="http://www.w3.org/2000/svg"
   xmlns:svg="http://www.w3.org/2000/svg"><sodipodi:namedview
     id="namedview7"
     pagecolor="#ffffff"
     bordercolor="#000000"
     borderopacity="0.25"
     inkscape:showpageshadow="2"
     inkscape:pageopacity="0.0"
     inkscape:pagecheckerboard="0"
     inkscape:deskcolor="#d1d1d1"
     inkscape:document-units="mm"
     showgrid="false"
     inkscape:zoom="0.04"
     inkscape:cx="-5312.5"
     inkscape:cy="8725"
     inkscape:window-width="2304"
     inkscape:window-height="1190"
     inkscape:window-x="-11"
     inkscape:window-y="337"
     inkscape:window-maximized="1"
     inkscape:current-layer="layer1" /><defs
     id="defs2"><style
       id="style2551">
      .cls-1 {
        stroke: #151515;
        stroke-miterlimit: 10;
      }

      .cls-1, .cls-2 {
        fill: none;
      }

      .cls-3 {
        clip-path: url(#clippath-2);
      }

      .cls-4 {
        clip-path: url(#clippath-1);
      }

      .cls-5 {
        clip-path: url(#clippath);
      }
    </style><clipPath
       id="clippath"><rect
         class="cls-2"
         x="2.02"
         width="1917.98"
         height="1080"
         id="rect2553"
         y="0" /></clipPath><clipPath
       id="clippath-1"><rect
         class="cls-2"
         x="-2.98"
         y="-5"
         width="1927.98"
         height="1090"
         id="rect2556" /></clipPath><clipPath
       id="clippath-2"><rect
         class="cls-2"
         x="-2.98"
         y="-5"
         width="1927.98"
         height="1090"
         id="rect2559" /></clipPath></defs><g
     inkscape:label="Capa 1"
     inkscape:groupmode="layer"
     id="layer1"><path
       class="cls-1"
       d="M 833.98692,232.65571 1067.2621,99.617922 c 4.2889,-2.45798 6.9321,-6.998228 6.9321,-11.91154 V 7.0058197 c 0,-10.5912703 -11.5491,-17.2058547 -20.7883,-11.9115413 L 975.43846,39.763882 c -4.28889,2.45798 -9.56998,2.45798 -13.85623,0 l -102.32495,-58.62902 c -4.2889,-2.457979 -6.93209,-6.998229 -6.93209,-11.911541 v -22.087417"
       id="path2572"
       style="stroke-width:3;stroke-dasharray:none" /><path
       class="cls-1"
       d="M 834.32219,232.45278 600.51764,364.55804 c -4.29868,2.44084 -6.95998,6.9705 -6.9796,11.88377 l -0.32223,80.69993 c -0.0423,10.59119 11.48026,17.25183 20.74058,11.99446 l 78.14517,-44.35794 c 4.29867,-2.44084 9.57971,-2.41975 13.85612,0.0553 l 102.09004,59.03716 c 4.27904,2.47509 6.90408,7.02587 6.88484,11.93891 l -0.0882,22.08725"
       id="path2572-7"
       style="fill:none;stroke:#151515;stroke-width:3;stroke-miterlimit:10;stroke-dasharray:none" /><path
       class="cls-1"
       d="M 796.58177,803.04583 1029.857,670.00804 c 4.2888,-2.45798 6.932,-6.99823 6.932,-11.91154 v -80.70056 c 0,-10.59127 -11.549,-17.20585 -20.7883,-11.91154 l -77.96739,44.6696 c -4.28889,2.45798 -9.56998,2.45798 -13.85623,0 L 821.85213,551.52498 c -4.2889,-2.45798 -6.93209,-6.99823 -6.93209,-11.91154 v -22.08742"
       id="path2572-6"
       style="fill:none;stroke:#151515;stroke-width:3;stroke-miterlimit:10;stroke-dasharray:none" /><path
       class="cls-1"
       d="M 796.91704,802.8429 563.11249,934.94816 c -4.29868,2.44084 -6.95998,6.9705 -6.9796,11.88377 l -0.32223,80.69997 c -0.0423,10.5912 11.48026,17.2518 20.74058,11.9944 l 78.14517,-44.3579 c 4.29867,-2.44086 9.57971,-2.41977 13.85612,0.055 l 102.09004,59.0371 c 4.27904,2.4751 6.90408,7.0259 6.88484,11.939 l -0.0882,22.0872"
       id="path2572-7-2"
       style="fill:none;stroke:#151515;stroke-width:3;stroke-miterlimit:10;stroke-dasharray:none" /><path
       class="cls-1"
       d="M 377.20487,242.96892 610.48006,109.93113 c 4.28889,-2.45798 6.93208,-6.99823 6.93208,-11.911539 v -80.70056 c 0,-10.5912703 -11.54906,-17.20586034 -20.78831,-11.9115403 L 518.65641,50.077091 c -4.28889,2.45798 -9.56998,2.45798 -13.85623,0 L 402.47523,-8.5519293 c -4.2889,-2.4579797 -6.93209,-6.9982297 -6.93209,-11.9115397 v -22.08742"
       id="path2572-2"
       style="fill:none;stroke:#151515;stroke-width:3;stroke-miterlimit:10;stroke-dasharray:none" /><path
       class="cls-1"
       d="M 377.54014,242.76599 143.73559,374.87125 c -4.29868,2.44084 -6.95998,6.9705 -6.9796,11.88377 l -0.32223,80.69993 c -0.0423,10.59119 11.48026,17.25183 20.74058,11.99446 l 78.14517,-44.35794 c 4.29867,-2.44084 9.57971,-2.41975 13.85612,0.0553 l 102.09004,59.03716 c 4.27904,2.47509 6.90408,7.02587 6.88484,11.93891 l -0.0882,22.08725"
       id="path2572-7-6"
       style="fill:none;stroke:#151515;stroke-width:3;stroke-miterlimit:10;stroke-dasharray:none" /><path
       class="cls-1"
       d="m 339.79972,813.35906 233.27519,-133.0378 c 4.28889,-2.458 6.93208,-6.9982 6.93208,-11.91155 v -80.70056 c 0,-10.59127 -11.54906,-17.20585 -20.78831,-11.91154 l -77.96742,44.6696 c -4.28889,2.45798 -9.56998,2.45798 -13.85623,0 L 365.07008,561.83819 c -4.2889,-2.45798 -6.93209,-6.99823 -6.93209,-11.91154 v -22.08742"
       id="path2572-6-3"
       style="fill:none;stroke:#151515;stroke-width:3;stroke-miterlimit:10;stroke-dasharray:none" /><path
       class="cls-1"
       d="m 340.13499,813.15616 -233.80455,132.1052 c -4.29868,2.4408 -6.959979,6.9705 -6.979599,11.8838 l -0.32223,80.69994 c -0.0423,10.5912 11.480259,17.2518 20.740579,11.9944 l 78.14517,-44.3579 c 4.29867,-2.4408 9.57971,-2.4197 13.85612,0.055 l 102.09004,59.0371 c 4.27904,2.4751 6.90408,7.0259 6.88484,11.939 l -0.0882,22.0872"
       id="path2572-7-2-4"
       style="fill:none;stroke:#151515;stroke-width:3;stroke-miterlimit:10;stroke-dasharray:none" /><path
       class="cls-1"
       d="m 759.1028,1373.6482 233.27519,-133.0378 c 4.28889,-2.458 6.93208,-6.9982 6.93208,-11.9116 v -80.7005 c 0,-10.5913 -11.54906,-17.2059 -20.78831,-11.9116 l -77.96742,44.6696 c -4.28889,2.458 -9.56998,2.458 -13.85623,0 l -102.32495,-58.629 c -4.2889,-2.458 -6.93209,-6.9982 -6.93209,-11.9115 v -22.0874"
       id="path2572-4"
       style="fill:none;stroke:#151515;stroke-width:3;stroke-miterlimit:10;stroke-dasharray:none" /><path
       class="cls-1"
       d="m 759.43807,1373.4452 -233.80455,132.1053 c -4.29868,2.4408 -6.95998,6.9705 -6.9796,11.8838 l -0.32223,80.6999 c -0.0423,10.5912 11.48026,17.2518 20.74058,11.9945 l 78.14517,-44.358 c 4.29867,-2.4408 9.57971,-2.4197 13.85612,0.055 l 102.09004,59.0372 c 4.27904,2.4751 6.90408,7.0259 6.88484,11.9389 l -0.0882,22.0872"
       id="path2572-7-3"
       style="fill:none;stroke:#151515;stroke-width:3;stroke-miterlimit:10;stroke-dasharray:none" /><path
       class="cls-1"
       d="m 721.69765,1944.0383 233.27519,-133.0378 c 4.28889,-2.458 6.93208,-6.9982 6.93208,-11.9115 v -80.7006 c 0,-10.5913 -11.54906,-17.2058 -20.78831,-11.9115 l -77.96742,44.6696 c -4.28889,2.4579 -9.56998,2.4579 -13.85623,0 l -102.32495,-58.6291 c -4.2889,-2.4579 -6.93209,-6.9982 -6.93209,-11.9115 v -22.0874"
       id="path2572-6-8"
       style="fill:none;stroke:#151515;stroke-width:3;stroke-miterlimit:10;stroke-dasharray:none" /><path
       class="cls-1"
       d="m 722.03292,1943.8354 -233.80455,132.1052 c -4.29868,2.4409 -6.95998,6.9705 -6.9796,11.8838 l -0.32223,80.7 c -0.0423,10.5912 11.48026,17.2518 20.74058,11.9944 l 78.14517,-44.358 c 4.29867,-2.4408 9.57971,-2.4197 13.85612,0.055 l 102.09004,59.0372 c 4.27904,2.4751 6.90408,7.0259 6.88484,11.939 l -0.0882,22.0872"
       id="path2572-7-2-3"
       style="fill:none;stroke:#151515;stroke-width:3;stroke-miterlimit:10;stroke-dasharray:none" /><path
       class="cls-1"
       d="m 302.32075,1383.9614 233.27519,-133.0378 c 4.28889,-2.458 6.93208,-6.9982 6.93208,-11.9115 v -80.7006 c 0,-10.5913 -11.54906,-17.2059 -20.78831,-11.9115 l -77.96742,44.6696 c -4.28889,2.4579 -9.56998,2.4579 -13.85623,0 l -102.32495,-58.6291 c -4.2889,-2.4579 -6.93209,-6.9982 -6.93209,-11.9115 v -22.0874"
       id="path2572-2-7"
       style="fill:none;stroke:#151515;stroke-width:3;stroke-miterlimit:10;stroke-dasharray:none" /><path
       class="cls-1"
       d="M 302.65602,1383.7585 68.851471,1515.8637 c -4.29868,2.4409 -6.95998,6.9705 -6.9796,11.8838 l -0.32223,80.6999 c -0.0423,10.5912 11.48026,17.2518 20.74058,11.9945 l 78.145169,-44.358 c 4.29867,-2.4408 9.57971,-2.4197 13.85612,0.055 l 102.09004,59.0372 c 4.27904,2.4751 6.90408,7.0259 6.88484,11.9389 l -0.0882,22.0873"
       id="path2572-7-6-7"
       style="fill:none;stroke:#151515;stroke-width:3;stroke-miterlimit:10;stroke-dasharray:none" /><path
       class="cls-1"
       d="m 264.9156,1954.3515 233.27519,-133.0378 c 4.28889,-2.458 6.93208,-6.9982 6.93208,-11.9115 v -80.7006 c 0,-10.5913 -11.54906,-17.2058 -20.78831,-11.9115 l -77.96742,44.6696 c -4.28889,2.458 -9.56998,2.458 -13.85623,0 l -102.32495,-58.629 c -4.2889,-2.458 -6.93209,-6.9983 -6.93209,-11.9116 v -22.0874"
       id="path2572-6-3-5"
       style="fill:none;stroke:#151515;stroke-width:3;stroke-miterlimit:10;stroke-dasharray:none" /><path
       class="cls-1"
       d="M 265.25087,1954.1486 31.446321,2086.2538 c -4.29868,2.4408 -6.95998,6.9705 -6.9796,11.8838 l -0.32223,80.7 c -0.0423,10.5912 11.48026,17.2518 20.74058,11.9944 l 78.145169,-44.358 c 4.29867,-2.4408 9.57971,-2.4197 13.85612,0.055 l 102.09004,59.0372 c 4.27904,2.4751 6.90408,7.0259 6.88484,11.939 l -0.0882,22.0872"
       id="path2572-7-2-4-0"
       style="fill:none;stroke:#151515;stroke-width:3;stroke-miterlimit:10;stroke-dasharray:none" /><path
       class="cls-1"
       d="m 684.16332,2511.7228 233.2752,-133.0378 c 4.2889,-2.458 6.9321,-6.9982 6.9321,-11.9115 v -80.7006 c 0,-10.5913 -11.5491,-17.2058 -20.7883,-11.9115 l -77.9675,44.6696 c -4.2889,2.458 -9.57,2.458 -13.8562,0 l -102.3249,-58.629 c -4.2889,-2.458 -6.9321,-6.9983 -6.9321,-11.9116 v -22.0874"
       id="path2572-5"
       style="fill:none;stroke:#151515;stroke-width:3;stroke-miterlimit:10;stroke-dasharray:none" /><path
       class="cls-1"
       d="m 684.49862,2511.5199 -233.8046,132.1052 c -4.2987,2.4409 -6.96,6.9705 -6.9796,11.8838 l -0.3222,80.6999 c -0.042,10.5912 11.4802,17.2519 20.7406,11.9945 l 78.1451,-44.3579 c 4.2987,-2.4409 9.5797,-2.4198 13.8562,0.055 l 102.09,59.0371 c 4.279,2.4751 6.9041,7.0259 6.8848,11.9389 l -0.088,22.0873"
       id="path2572-7-7"
       style="fill:none;stroke:#151515;stroke-width:3;stroke-miterlimit:10;stroke-dasharray:none" /><path
       class="cls-1"
       d="m 646.75812,3082.1129 233.2753,-133.0378 c 4.2888,-2.4579 6.932,-6.9982 6.932,-11.9115 v -80.7006 c 0,-10.5912 -11.549,-17.2058 -20.7883,-11.9115 l -77.9674,44.6696 c -4.2889,2.458 -9.57,2.458 -13.8562,0 l -102.325,-58.629 c -4.2889,-2.458 -6.9321,-6.9982 -6.9321,-11.9116 v -22.0874"
       id="path2572-6-6"
       style="fill:none;stroke:#151515;stroke-width:3;stroke-miterlimit:10;stroke-dasharray:none" /><path
       class="cls-1"
       d="m 647.09342,3081.91 -233.8045,132.1053 c -4.2987,2.4408 -6.96,6.9705 -6.9796,11.8837 l -0.3223,80.7 c -0.042,10.5912 11.4803,17.2518 20.7406,11.9944 l 78.1452,-44.3579 c 4.2987,-2.4409 9.5797,-2.4198 13.8561,0.055 l 102.09,59.0371 c 4.2791,2.4751 6.9041,7.0259 6.8849,11.939 l -0.088,22.0872"
       id="path2572-7-2-9"
       style="fill:none;stroke:#151515;stroke-width:3;stroke-miterlimit:10;stroke-dasharray:none" /><path
       class="cls-1"
       d="m 227.38126,2522.036 233.27516,-133.0378 c 4.2889,-2.4579 6.9321,-6.9982 6.9321,-11.9115 v -80.7006 c 0,-10.5912 -11.5491,-17.2058 -20.7883,-11.9115 l -77.96742,44.6696 c -4.28889,2.458 -9.56998,2.458 -13.85623,0 l -102.32495,-58.629 c -4.2889,-2.458 -6.93209,-6.9983 -6.93209,-11.9116 v -22.0874"
       id="path2572-2-4"
       style="fill:none;stroke:#151515;stroke-width:3;stroke-miterlimit:10;stroke-dasharray:none" /><path
       class="cls-1"
       d="M 227.71653,2521.8331 -6.0880269,2653.9383 c -4.2986801,2.4409 -6.9599801,6.9706 -6.9796001,11.8838 l -0.32223,80.7 c -0.0423,10.5911 11.4802601,17.2518 20.7405803,11.9944 l 78.1451697,-44.3579 c 4.29867,-2.4409 9.57971,-2.4198 13.85612,0.055 l 102.090047,59.0371 c 4.27904,2.4751 6.90408,7.0259 6.88484,11.9389 l -0.0882,22.0873"
       id="path2572-7-6-3"
       style="fill:none;stroke:#151515;stroke-width:3;stroke-miterlimit:10;stroke-dasharray:none" /><path
       class="cls-1"
       d="m 189.97611,3092.4262 233.27521,-133.0378 c 4.2889,-2.458 6.9321,-6.9982 6.9321,-11.9116 v -80.7006 c 0,-10.5912 -11.5491,-17.2058 -20.7883,-11.9115 l -77.96747,44.6696 c -4.28889,2.458 -9.56998,2.458 -13.85623,0 l -102.32495,-58.629 c -4.2889,-2.458 -6.93209,-6.9982 -6.93209,-11.9115 v -22.0875"
       id="path2572-6-3-6"
       style="fill:none;stroke:#151515;stroke-width:3;stroke-miterlimit:10;stroke-dasharray:none" /><path
       class="cls-1"
       d="m 190.31138,3092.2233 -233.804557,132.1052 c -4.29868,2.4408 -6.95998,6.9705 -6.9796,11.8838 l -0.32223,80.6999 c -0.0423,10.5912 11.48026,17.2518 20.74058,11.9944 l 78.14517,-44.3579 c 4.29867,-2.4408 9.57971,-2.4197 13.85612,0.055 l 102.090047,59.0371 c 4.27904,2.4751 6.90408,7.0259 6.88484,11.939 l -0.0882,22.0872"
       id="path2572-7-2-4-5"
       style="fill:none;stroke:#151515;stroke-width:3;stroke-miterlimit:10;stroke-dasharray:none" /><path
       class="cls-1"
       d="m 609.27922,3652.7153 233.2752,-133.0378 c 4.2889,-2.458 6.932,-6.9982 6.932,-11.9116 v -80.7005 c 0,-10.5913 -11.549,-17.2059 -20.7883,-11.9116 l -77.9674,44.6696 c -4.2889,2.458 -9.57,2.458 -13.8562,0 l -102.325,-58.629 c -4.2889,-2.458 -6.9321,-6.9982 -6.9321,-11.9115 v -22.0874"
       id="path2572-4-8"
       style="fill:none;stroke:#151515;stroke-width:3;stroke-miterlimit:10;stroke-dasharray:none" /><path
       class="cls-1"
       d="m 609.61442,3652.5123 -233.80451,132.1053 c -4.29868,2.4408 -6.95998,6.9705 -6.9796,11.8838 l -0.32223,80.6999 c -0.0423,10.5912 11.48026,17.2518 20.74054,11.9945 l 78.1452,-44.358 c 4.2987,-2.4408 9.5797,-2.4197 13.8561,0.055 l 102.0901,59.0372 c 4.279,2.4751 6.9041,7.0259 6.8848,11.9389 l -0.088,22.0872"
       id="path2572-7-3-7"
       style="fill:none;stroke:#151515;stroke-width:3;stroke-miterlimit:10;stroke-dasharray:none" /><path
       class="cls-1"
       d="m 571.87402,4223.1054 233.2752,-133.0378 c 4.2889,-2.458 6.9321,-6.9982 6.9321,-11.9115 v -80.7006 c 0,-10.5913 -11.5491,-17.2058 -20.7883,-11.9115 l -77.9674,44.6696 c -4.2889,2.4579 -9.57,2.4579 -13.8563,0 l -102.3249,-58.6291 c -4.2889,-2.4579 -6.9321,-6.9982 -6.9321,-11.9115 v -22.0874"
       id="path2572-6-8-4"
       style="fill:none;stroke:#151515;stroke-width:3;stroke-miterlimit:10;stroke-dasharray:none" /><path
       class="cls-1"
       d="m 572.20932,4222.9025 -233.80456,132.1052 c -4.29868,2.4409 -6.95998,6.9705 -6.9796,11.8838 l -0.32223,80.7 c -0.0423,10.5912 11.48026,17.2518 20.74058,11.9944 l 78.14521,-44.358 c 4.2986,-2.4408 9.5797,-2.4197 13.8561,0.055 l 102.09,59.0372 c 4.2791,2.4751 6.9041,7.0259 6.8849,11.939 l -0.088,22.0872"
       id="path2572-7-2-3-1"
       style="fill:none;stroke:#151515;stroke-width:3;stroke-miterlimit:10;stroke-dasharray:none" /><path
       class="cls-1"
       d="m 152.49714,3663.0285 233.27519,-133.0378 c 4.28889,-2.458 6.93209,-6.9982 6.93209,-11.9115 v -80.7006 c 0,-10.5913 -11.54907,-17.2059 -20.78832,-11.9115 l -77.96742,44.6696 c -4.28889,2.4579 -9.56998,2.4579 -13.85623,0 L 177.7675,3411.5076 c -4.2889,-2.4579 -6.93209,-6.9982 -6.93209,-11.9115 v -22.0874"
       id="path2572-2-7-4"
       style="fill:none;stroke:#151515;stroke-width:3;stroke-miterlimit:10;stroke-dasharray:none" /><path
       class="cls-1"
       d="m 152.83241,3662.8256 -233.804557,132.1052 c -4.298681,2.4409 -6.959981,6.9705 -6.979601,11.8838 l -0.32223,80.6999 c -0.0423,10.5912 11.480261,17.2518 20.740581,11.9945 l 78.145171,-44.358 c 4.29867,-2.4408 9.57971,-2.4197 13.85612,0.055 l 102.090046,59.0372 c 4.27904,2.4751 6.90408,7.0259 6.88484,11.9389 l -0.0882,22.0873"
       id="path2572-7-6-7-2"
       style="fill:none;stroke:#151515;stroke-width:3;stroke-miterlimit:10;stroke-dasharray:none" /><path
       class="cls-1"
       d="m 115.09199,4233.4186 233.27519,-133.0378 c 4.28889,-2.458 6.93208,-6.9982 6.93208,-11.9115 v -80.7006 c 0,-10.5913 -11.54906,-17.2058 -20.78831,-11.9115 l -77.96742,44.6696 c -4.28889,2.458 -9.56998,2.458 -13.85623,0 l -102.32495,-58.629 c -4.2889,-2.458 -6.93209,-6.9983 -6.93209,-11.9116 v -22.0874"
       id="path2572-6-3-5-5"
       style="fill:none;stroke:#151515;stroke-width:3;stroke-miterlimit:10;stroke-dasharray:none" /><path
       class="cls-1"
       d="m 115.42726,4233.2157 -233.80455,132.1052 c -4.29868,2.4408 -6.95998,6.9705 -6.9796,11.8838 l -0.32223,80.7 c -0.0423,10.5912 11.48026,17.2518 20.74058,11.9944 l 78.145163,-44.358 c 4.29867,-2.4408 9.57971,-2.4197 13.85612,0.055 l 102.09004,59.0372 c 4.27904,2.4751 6.90408,7.0259 6.88484,11.939 l -0.0882,22.0872"
       id="path2572-7-2-4-0-3"
       style="fill:none;stroke:#151515;stroke-width:3;stroke-miterlimit:10;stroke-dasharray:none" /></g></svg>
