<?xml version="1.0" encoding="UTF-8" standalone="no"?>
<svg
   id="Capa_1"
   data-name="Capa 1"
   viewBox="0 0 1487.91 228.47"
   version="1.1"
   sodipodi:docname="Cx-Assistant_Primary 01-v1.svg"
   inkscape:version="1.2.1 (9c6d41e410, 2022-07-14)"
   width="1487.91"
   height="228.47"
   xmlns:inkscape="http://www.inkscape.org/namespaces/inkscape"
   xmlns:sodipodi="http://sodipodi.sourceforge.net/DTD/sodipodi-0.dtd"
   xmlns="http://www.w3.org/2000/svg"
   xmlns:svg="http://www.w3.org/2000/svg">
  <sodipodi:namedview
     id="namedview17"
     pagecolor="#ffffff"
     bordercolor="#000000"
     borderopacity="0.25"
     inkscape:showpageshadow="2"
     inkscape:pageopacity="0.0"
     inkscape:pagecheckerboard="0"
     inkscape:deskcolor="#d1d1d1"
     showgrid="false"
     inkscape:zoom="1.1905062"
     inkscape:cx="795.45994"
     inkscape:cy="262.91337"
     inkscape:window-width="2560"
     inkscape:window-height="1494"
     inkscape:window-x="-11"
     inkscape:window-y="-11"
     inkscape:window-maximized="1"
     inkscape:current-layer="Capa_1" />
  <defs
     id="defs4">
    <style
       id="style2">
      .cls-1 {
        fill: #151515;
      }

      .cls-2 {
        fill: #dcffb6;
      }

      .cls-3 {
        fill: #f7f7f7;
      }
    </style>
  </defs>
  <g
     id="g14"
     transform="matrix(1.2658646,0,0,1.2658646,-197.54375,-135.74825)">
    <path
       class="cls-3"
       d="m 1297.87,227.79 c 1.33,-2.29 3.14,-4.1 5.43,-5.43 2.29,-1.33 4.84,-2 7.66,-2 2.82,0 5.46,0.65 7.77,1.96 2.31,1.31 4.14,3.11 5.47,5.4 1.33,2.29 2,4.84 2,7.66 0,2.82 -0.67,5.37 -2,7.66 -1.33,2.29 -3.16,4.09 -5.47,5.4 -2.32,1.31 -4.91,1.96 -7.77,1.96 -2.86,0 -5.37,-0.65 -7.66,-1.96 -2.29,-1.31 -4.1,-3.11 -5.43,-5.4 -1.33,-2.29 -2,-4.82 -2,-7.58 0,-2.76 0.67,-5.37 2,-7.66 z m 24.38,0.98 c -1.13,-1.99 -2.68,-3.55 -4.64,-4.68 -1.96,-1.13 -4.18,-1.7 -6.64,-1.7 -2.46,0 -4.6,0.57 -6.57,1.7 -1.96,1.13 -3.51,2.69 -4.64,4.68 -1.13,1.99 -1.7,4.21 -1.7,6.68 0,2.47 0.57,4.6 1.7,6.57 1.13,1.96 2.68,3.51 4.64,4.64 1.96,1.13 4.15,1.7 6.57,1.7 2.42,0 4.68,-0.57 6.64,-1.7 1.96,-1.13 3.51,-2.69 4.64,-4.68 1.13,-1.99 1.7,-4.19 1.7,-6.6 0,-2.41 -0.57,-4.62 -1.7,-6.6 z m -10.53,-2 c 1.81,0 3.26,0.48 4.34,1.43 1.08,0.96 1.62,2.19 1.62,3.7 0,1.26 -0.38,2.32 -1.13,3.17 -0.75,0.86 -1.79,1.41 -3.09,1.66 l 4.3,7.24 h -2.49 l -4,-6.87 h -3.7 v 6.87 h -2.19 v -17.21 h 6.34 z m -4.15,8.45 h 4.07 c 1.11,0 2.01,-0.29 2.72,-0.87 0.7,-0.58 1.06,-1.4 1.06,-2.45 0,-1.05 -0.35,-1.8 -1.06,-2.38 -0.7,-0.58 -1.61,-0.87 -2.72,-0.87 h -4.07 z"
       id="path8" />
    <path
       class="cls-2"
       d="m 311.95,155.1 v -38.05 c 0,-3.49 -3.78,-5.68 -6.81,-3.93 l -66.05,38.13 c -1.4,0.81 -3.13,0.81 -4.54,0 L 168.5,113.12 c -3.03,-1.75 -6.81,0.44 -6.81,3.93 v 38.05 c 0,1.62 0.87,3.12 2.27,3.93 l 33.51,19.34 c 1.4,0.81 3.13,0.81 4.54,0 l 25.53,-14.74 c 3.03,-1.75 6.81,0.44 6.81,3.93 v 26.63 c 0,1.62 -0.87,3.12 -2.27,3.93 l -68.11,39.32 c -1.4,0.81 -2.27,2.31 -2.27,3.93 v 38.05 c 0,3.49 3.78,5.68 6.81,3.93 l 66.05,-38.13 c 1.4,-0.81 3.13,-0.81 4.54,0 l 66.05,38.13 c 3.03,1.75 6.81,-0.44 6.81,-3.93 v -38.05 c 0,-1.62 -0.87,-3.12 -2.27,-3.93 L 276.18,218.1 c -1.4,-0.81 -3.13,-0.81 -4.54,0 l -25.53,14.74 c -3.03,1.75 -6.81,-0.44 -6.81,-3.93 v -26.62 c 0,-1.62 0.86,-3.12 2.27,-3.93 l 68.11,-39.33 c 1.4,-0.81 2.27,-2.31 2.27,-3.93 z"
       id="path10" />
    <path
       class="cls-3"
       d="m 522.93,165.57 -19.62,31.81 h -6.96 l -15.67,-31.81 h -28.01 l 24.21,39.88 -18.42,32.9 -37.43,-0.78 c -16.14,0 -17.72,-3.64 -17.72,-14.56 v -49.37 c 0,-10.6 1.27,-15.03 17.72,-15.03 h 25 V 146.9 l -25.32,-2.21 c -20.57,0 -44.47,2.37 -44.47,28.96 v 49.37 c 0,26.27 23.58,28.48 44.47,28.48 l 53.79,-1.11 16.14,-35.6 h 8.07 l 16.46,35.6 h 27.53 l -25.95,-44.94 25.95,-39.88 h -19.78 z m 25.4,45.75 h 31.72 V 195.5 h -31.72 z m 72.94,-65.21 -28.96,104.28 h 22.47 l 4.91,-23.42 v 0.32 h 37.35 v -0.32 l 4.43,23.42 h 31.02 L 662.27,146.11 h -40.99 z m 1.27,67.73 11.24,-55.23 h 9.18 l 11.71,55.23 h -32.12 z m 102.53,-22.15 v -0.79 c 0,-7.75 1.42,-13.13 15.35,-13.13 h 23.89 v -11.24 l -24.21,-2.37 c -26.43,0 -40.19,6.01 -40.19,27.53 0,3.48 1.11,8.86 2.21,12.82 l 39.25,18.67 v 1.9 c 0,7.91 -0.95,13.14 -16.3,13.14 H 700.7 v 11.24 l 24.85,2.37 c 27.69,0 40.2,-6.33 40.2,-27.69 0,-2.85 -0.79,-9.18 -1.58,-13.77 L 725.08,191.7 Z m 76.9,0 v -0.79 c 0,-7.75 1.42,-13.13 15.35,-13.13 h 23.89 V 166.53 L 817,164.16 c -26.43,0 -40.19,6.01 -40.19,27.53 0,3.48 1.11,8.86 2.21,12.82 l 39.25,18.67 v 1.9 c 0,7.91 -0.95,13.14 -16.3,13.14 H 777.6 v 11.24 l 24.85,2.37 c 27.69,0 40.2,-6.33 40.2,-27.69 0,-2.85 -0.79,-9.18 -1.58,-13.77 L 801.98,191.7 Z m 57.12,58.71 h 22.94 v -84.82 h -22.94 z m 12.66,-112.35 h -2.37 c -8.86,0 -12.34,3.16 -12.34,6.17 v 6.81 c 0,3.01 3.48,6.01 12.34,6.01 h 2.37 c 9.02,0.16 12.34,-3.01 12.34,-6.01 v -6.81 c 0,-3.01 -3.48,-6.17 -12.34,-6.17 z m 50.16,53.65 v -0.79 c 0,-7.75 1.42,-13.13 15.35,-13.13 h 23.89 v -11.24 l -24.21,-2.37 c -26.43,0 -40.2,6.01 -40.2,27.53 0,3.48 1.11,8.86 2.22,12.82 l 39.25,18.67 v 1.9 c 0,7.91 -0.95,13.14 -16.3,13.14 h -24.37 v 11.24 l 24.85,2.37 c 27.69,0 40.19,-6.33 40.19,-27.69 0,-2.85 -0.79,-9.18 -1.58,-13.77 l -39.09,-18.67 z m 79.43,-40.19 h -9.97 c -0.63,9.02 -1.9,12.98 -13.45,14.56 v 57.28 c 0,21.05 11.71,28.48 36.71,28.48 l 14.87,-1.58 v -12.03 h -14.4 c -12.03,0 -13.77,-5.22 -13.77,-14.88 v -43.83 l 28.17,-2.53 v -11.39 h -28.17 v -14.08 z m 71.21,12.98 -28.64,2.85 v 11.39 h 26.9 c 18.67,0 22.15,3.64 22.15,10.29 v 6.33 l -25.95,-2.37 c -17.57,0 -28.17,7.75 -28.17,27.22 v 2.85 c 0,19.78 10.92,28.64 36.71,28.64 l 40.67,-2.85 v -54.6 c 0,-21.05 -10.92,-29.75 -43.68,-29.75 z m 20.41,74.06 h -16.78 c -11.87,0 -13.61,-5.06 -13.61,-15.03 v -3.32 c 0,-10.13 1.58,-15.03 13.29,-15.03 h 17.09 v 33.39 z m 83.7,-74.22 -41.94,3.01 v 83.08 h 23.58 v -71.37 h 16.61 c 11.71,0 13.61,5.38 13.61,15.03 v 28.8 q 0,27.53 23.58,27.53 v -57.44 c 0,-19.31 -12.66,-28.64 -35.45,-28.64 z m 105.7,12.66 V 165.6 h -28.17 v -14.08 h -9.97 c -0.63,9.02 -1.9,12.98 -13.45,14.56 v 57.28 c 0,21.05 11.71,28.48 36.71,28.48 l 14.87,-1.58 v -12.03 h -14.4 c -12.03,0 -13.77,-5.22 -13.77,-14.88 v -43.83 l 28.17,-2.53 z"
       id="path12" />
  </g>
</svg>
