<?xml version="1.0" encoding="UTF-8" standalone="no"?>
<!-- Created with Inkscape (http://www.inkscape.org/) -->

<svg
   version="1.1"
   id="svg1099"
   width="983.5202"
   height="907.57916"
   viewBox="0 0 983.5202 907.57916"
   sodipodi:docname="logo.svg"
   inkscape:version="1.2.1 (9c6d41e410, 2022-07-14)"
   xmlns:inkscape="http://www.inkscape.org/namespaces/inkscape"
   xmlns:sodipodi="http://sodipodi.sourceforge.net/DTD/sodipodi-0.dtd"
   xmlns:xlink="http://www.w3.org/1999/xlink"
   xmlns="http://www.w3.org/2000/svg"
   xmlns:svg="http://www.w3.org/2000/svg">
  <defs
     id="defs1103">
    <linearGradient
       inkscape:collect="always"
       id="linearGradient3084">
      <stop
         style="stop-color:#7653cb;stop-opacity:1;"
         offset="0"
         id="stop3080" />
      <stop
         style="stop-color:#ef6a76;stop-opacity:1;"
         offset="0.94573647"
         id="stop3082" />
    </linearGradient>
    <linearGradient
       id="linearGradient2337">
      <stop
         style="stop-color:#000000;stop-opacity:1;"
         offset="0"
         id="stop2341" />
      <stop
         style="stop-color:#000000;stop-opacity:0;"
         offset="1"
         id="stop2343" />
    </linearGradient>
    <linearGradient
       id="linearGradient2337-1">
      <stop
         style="stop-color:#a40000;stop-opacity:1;"
         offset="0"
         id="stop2333" />
      <stop
         style="stop-color:#000000;stop-opacity:0;"
         offset="1"
         id="stop2335" />
    </linearGradient>
    <linearGradient
       inkscape:collect="always"
       xlink:href="#linearGradient3084"
       id="linearGradient3086"
       x1="208.31621"
       y1="279.01672"
       x2="812.31622"
       y2="279.01672"
       gradientUnits="userSpaceOnUse"
       gradientTransform="matrix(1.6283447,0,0,1.6283447,-328.88284,8.6000203)" />
  </defs>
  <sodipodi:namedview
     id="namedview1101"
     pagecolor="#ffffff"
     bordercolor="#000000"
     borderopacity="0.25"
     inkscape:showpageshadow="2"
     inkscape:pageopacity="0.0"
     inkscape:pagecheckerboard="0"
     inkscape:deskcolor="#d1d1d1"
     showgrid="false"
     inkscape:zoom="0.43020266"
     inkscape:cx="97.628406"
     inkscape:cy="430.02988"
     inkscape:window-width="2560"
     inkscape:window-height="1494"
     inkscape:window-x="-11"
     inkscape:window-y="-11"
     inkscape:window-maximized="1"
     inkscape:current-layer="g1105" />
  <g
     inkscape:groupmode="layer"
     inkscape:label="Image"
     id="g1105"
     transform="translate(-10.327754,-9.145892)">
    <path
       style="fill:url(#linearGradient3086);fill-opacity:1;stroke-width:1.62834"
       d="m 841.46932,914.41453 -5.01348,-2.18301 -1.80339,-4.67372 c -0.99186,-2.57054 -2.16143,-19.32881 -2.59904,-37.2406 -0.88197,-36.10022 -1.85906,-41.73267 -10.31043,-59.43459 l -5.83061,-12.21258 -12.51797,-12.38948 -12.51796,-12.38949 -12.09127,-5.97237 c -6.65021,-3.28481 -16.12142,-7.1466 -21.04716,-8.58178 l -8.9559,-2.60942 -40.70862,-0.68278 c -44.50169,-0.74638 -48.17347,-1.42235 -52.0453,-9.58162 l -2.60929,-5.49867 0.45959,-66.77689 0.45962,-66.77687 4.52081,-4.51352 4.52081,-4.51352 41.07284,-0.16721 41.07285,-0.1672 9.77007,-2.76273 c 5.37354,-1.51951 15.22811,-5.47442 21.89909,-8.78869 l 12.129,-6.02596 11.482,-11.43837 c 13.91683,-13.86397 21.34046,-26.04033 26.61987,-43.66232 l 3.9815,-13.28978 0.82785,-37.19865 0.82784,-37.19862 3.71948,-4.32417 3.71948,-4.32415 h 71.68124 71.68132 l 4.9919,4.78259 4.9919,4.7826 v 69.62338 69.62336 l -3.9273,4.56877 -3.9273,4.56874 -42.8876,1.03332 -42.88759,1.03333 -9.65121,2.68482 c -55.56598,15.45771 -84.62917,73.9705 -72.72126,146.40947 l 1.29317,7.86658 4.14913,4.14915 4.14916,4.14914 77.87315,0.84563 77.87315,0.84563 4.5181,4.51809 4.5181,4.51808 v 69.25328 69.2533 l -1.9454,4.2696 c -1.0699,2.34829 -3.9646,5.31377 -6.4325,6.59 l -4.4872,2.3204 -66.43586,-0.0637 -66.4359,-0.0637 -5.01348,-2.18302 z M 311.62459,784.64175 C 151.34168,770.42035 33.182452,659.51673 12.677685,504.05183 l -2.349931,-17.81694 v -85.24871 -85.24874 l 1.718568,-15.81216 C 28.807267,145.712 143.6676,35.980261 312.38571,12.996263 343.46494,8.7624473 509.99095,7.6813213 547.68153,11.468689 704.00053,27.176512 820.48736,159.71131 821.88824,323.45179 l 0.16938,19.79855 -3.94761,4.21954 -3.94763,4.21952 h -80.22841 -80.22842 l -4.43007,-3.8106 -4.4301,-3.81059 -1.40381,-21.02167 C 638.58392,250.30531 602.06416,204.19383 534.84834,185.93189 l -15.66285,-4.25545 -87.93061,-0.59966 -87.93062,-0.59965 -15.42574,1.80453 c -74.98589,8.77198 -126.7395,52.74723 -140.92343,119.74322 l -2.75794,13.02675 -0.43588,74.90386 c -0.58191,99.9998 0.62587,111.46586 14.77693,140.28169 l 7.31675,14.89917 10.54112,12.35413 c 25.14725,29.47241 68.80255,49.74515 117.71774,54.66599 l 16.86307,1.69643 h 139.27077 139.2708 l -0.88615,19.94723 -0.88617,19.94722 -4.34768,14.65509 c -18.96068,63.91249 -67.33907,105.5465 -134.33736,115.60949 l -16.28199,2.44552 -72.87915,-0.22393 c -40.08352,-0.12311 -79.81644,-0.83946 -88.29536,-1.59177 z m 166.68946,-200.75039 -5.53638,-5.53638 v -68.4767 -68.47668 l 1.7671,-3.87838 c 0.97191,-2.1331 3.83279,-5.09859 6.35752,-6.58999 l 4.59045,-2.71163 h 67.81301 67.81302 l 4.45467,2.3036 c 2.45007,1.26696 5.34764,4.01479 6.43906,6.10629 l 1.9844,3.80269 0.40054,74.49723 0.40054,74.49722 -75.47379,-4.4e-4 -75.47377,-4.7e-4 z"
       id="path2308" />
  </g>
</svg>
